<svg id="marker" xmlns="http://www.w3.org/2000/svg" width="32" height="32" viewBox="0 0 32 32">
  <path id="Path_1" data-name="Path 1" d="M22.462,43a.533.533,0,0,0-.125,1.059c5.609.66,8.6,2.439,8.6,3.47C30.933,48.98,25.252,51,16,51S1.067,48.98,1.067,47.533c0-1.031,2.987-2.81,8.6-3.47A.533.533,0,1,0,9.538,43C3.922,43.665,0,45.527,0,47.533c0,2.253,5.5,4.533,16,4.533s16-2.281,16-4.533C32,45.527,28.078,43.665,22.462,43Z" transform="translate(0 -20.066)" fill="#fefefe"/>
  <path id="Path_2" data-name="Path 2" d="M20.874,29.2l8.182-11.817C32.124,13.3,31.681,6.571,28.106,3A10.227,10.227,0,0,0,13.642,3c-3.575,3.574-4.019,10.3-.962,14.374Zm.094-22.8a3.733,3.733,0,1,1-3.733,3.733A3.738,3.738,0,0,1,20.968,6.4Z" transform="translate(-4.968)" fill="#fefefe"/>
</svg>
